PathFileType	4	(X/Y/Z)	33_2_18_p0_0-505_filt_butterworth.trc
DataRate	CameraRate	NumFrames	NumMarkers	Units	OrigDataRate	OrigDataStartFrame	OrigNumFrames
60.0	60.0	4	27	m	60.0	0	505
Frame#	Time	RHip			RKnee			RAnkle			RBigToe			RSmallToe			RHeel			LHip			LKnee			LAnkle			LBigToe			LSmallToe			LHeel			Neck			Head			Nose			RShoulder			RElbow			RWrist			RThumb			RIndex			RPinky			LShoulder			LElbow			LWrist			LThumb			LIndex			LPinky			
		X1	Y1	Z1	X2	Y2	Z2	X3	Y3	Z3	X4	Y4	Z4	X5	Y5	Z5	X6	Y6	Z6	X7	Y7	Z7	X8	Y8	Z8	X9	Y9	Z9	X10	Y10	Z10	X11	Y11	Z11	X12	Y12	Z12	X13	Y13	Z13	X14	Y14	Z14	X15	Y15	Z15	X16	Y16	Z16	X17	Y17	Z17	X18	Y18	Z18	X19	Y19	Z19	X20	Y20	Z20	X21	Y21	Z21	X22	Y22	Z22	X23	Y23	Z23	X24	Y24	Z24	X25	Y25	Z25	X26	Y26	Z26	X27	Y27	Z27	
0	0.0	0.279243976703715	0.2738453915238465	0.13527792716365025	0.27382957414987197	0.5211628796043991	0.5424332269771475	0.245034877773554	0.7306736129429072	0.923154561148445	0.2581717192535627	0.5889863329324869	1.0033797856760396	0.3135090383143429	0.6553168122986147	0.9993054060779749	0.21696472893908975	0.8406800317176657	0.9740902750397564	0.06337369472607295	0.30585545663650027	0.13978372732824837	0.0639510635965182	0.5393322374104549	0.5406280759839325	0.05725614021479013	0.7849233379591565	0.9231944685633349	0.08252769382558722	0.585825381718527	0.9886735632155578	0.025486547205566562	0.6601419095613206	0.9945611539621373	0.07337823326916323	0.8374416247030742	0.9625714482171299	0.21555174188565912	0.027299451375731552	-0.3799246395841028	0.23071966020820917	-0.12359013071782646	-0.5799578032823356	0.22754094370797287	-0.1290916376148221	-0.4208985152697385	0.3596789912587534	0.08654587713473735	-0.2911203406236985	0.38415270067523555	0.20819171612893556	-0.04074060617397247	0.25034087853837533	0.1832392158973799	0.18020064951768716	0.15953912440085352	0.24955057166011685	0.2470905968664111	0.14884176885322234	0.2630523535014137	0.2487641742323652	0.1714315368211316	0.19866486915877785	0.2667432051829411	0.04557222648395552	0.051154134123058095	-0.28958480116884366	-0.0006341434403282523	0.17636562519467272	-0.040933334265082916	0.11173894392737496	0.14802487186536675	0.17949462441292668	0.2004829680984805	0.17744371834130263	0.21828922826914351	0.2002516347058193	0.20145518014957153	0.26356082021882865	0.17499771015236287	0.20505206051500752	0.2753155784864297
1	0.0166666666666666	0.27938973587058835	0.2747667199262567	0.1376970645584154	0.2687947802466472	0.5227694764230469	0.5437910918987134	0.24457699458846507	0.7305657713879389	0.9231020364639755	0.25633636274132554	0.5884532527332782	1.0037390010140819	0.31581153575261717	0.641426818376167	0.9988389328586785	0.21332208370666506	0.8523380351162586	0.9750792359131594	0.0631983873397205	0.30647874981140405	0.14112937893498653	0.06394606124004899	0.5390710723249974	0.5406209315875927	0.058311707648830174	0.7749012943280238	0.9226298918727596	0.08228998401199959	0.5861016312020253	0.989119272857829	0.025473169161581877	0.6600440238052004	0.9944332187518778	0.07330867970133907	0.8372783399024455	0.962748997471872	0.21551390563290823	0.027239406343116983	-0.37998619920489674	0.2307434457531056	-0.1236596655380526	-0.5799331145238447	0.22757898808961388	-0.1291951370970083	-0.42093210736280856	0.35963149256097654	0.08659117756149033	-0.29105441382134345	0.3858783509950125	0.20886996528647978	-0.04189637984417768	0.2519613997257577	0.17851128370969757	0.18089667726068714	0.16021675696895868	0.23470802539589447	0.2507034876836988	0.15077403231236566	0.2544416770970255	0.253239232551233	0.1739579862742756	0.20246769600061698	0.2684353593920682	0.04464612165100846	0.044448580571219004	-0.287079286304177	0.002470670704590536	0.1656492477098701	-0.03695481565842042	0.11169534580428575	0.14722356462607758	0.1773902752701406	0.19797651173802572	0.16958657714794068	0.2182071446250083	0.2001068942410661	0.20103685819202252	0.26357518372647804	0.17535612172689535	0.20470246535225117	0.2759593944617171
2	0.0333333333333333	0.27954114186405654	0.2751575655485746	0.13908837149143555	0.26564407239255067	0.5231304110615729	0.5441480261245627	0.24347279780591302	0.7302121882549515	0.9230723393638507	0.2546484504615582	0.5879041889982118	1.0040096252270871	0.31739040812696134	0.6338502926686996	0.9992837182821632	0.2111360889949667	0.8593481117346115	0.9756550052287103	0.06234475044719223	0.30526788057236864	0.14227537433196877	0.06394611576971236	0.5388814657215548	0.5405873401264947	0.05858704003235436	0.7723607026053858	0.9224623608155618	0.08225158461352963	0.5859813881863948	0.9890123486762872	0.02545777729462264	0.6599952742488947	0.9943552910435325	0.07334582786223633	0.8369445320923508	0.9628428671974935	0.21549857382187432	0.027353485899186715	-0.3797046734251901	0.23076347216014692	-0.12369746789612768	-0.5799114009783931	0.22760429526587847	-0.1292409009685068	-0.420989094306254	0.3596006556173924	0.0866448911118537	-0.29103147451123734	0.3878180049246659	0.20934481298700996	-0.042591003918942646	0.25359742691998866	0.17406024593669522	0.18164304334169434	0.16105001747734238	0.22320984137987154	0.25410847419296173	0.1528528771872376	0.2497699490003889	0.25712593549672563	0.17602099022466014	0.20697360141390858	0.26937564077851706	0.04407715089346853	0.040404323887701425	-0.28557503811335455	0.004493166649278993	0.15968666159499892	-0.03467593827406994	0.11168865811678559	0.1467212351967169	0.1761660239798886	0.1968580437519188	0.1649299332566867	0.2180988835142933	0.20030857082415274	0.20104873284834057	0.2638666146634993	0.17594000482738287	0.20486739216231833	0.27618747568173435
3	0.05	0.27959309644710384	0.2746815466476018	0.1391427582065439	0.2643940213322911	0.5225451966942803	0.5437901938006751	0.2419068868418986	0.7296890903909351	0.923071359992544	0.2535380769560981	0.5875356722533025	1.0041741230147132	0.3182721452205766	0.6335900529211471	1.0005555310275729	0.21051981911080672	0.8613615521485884	0.975816109975365	0.06070907700409118	0.30132786973984726	0.14293487815591874	0.06396188866538441	0.5387865706792433	0.5405363640313934	0.05812571853795685	0.7768628552869447	0.9226814225068583	0.0822654639562133	0.5859168111046174	0.9889429371871241	0.025432532624614763	0.6600212096097052	0.9943434069953091	0.07367841379113756	0.8364015707329064	0.9628410550793474	0.21551694474916916	0.027710649066844867	-0.3788953643827654	0.23078338405922727	-0.12370510335111386	-0.57989894241563	0.22762083627625648	-0.12916545053842082	-0.42098673168926376	0.3595900244720255	0.0867082463290272	-0.2910485003867005	0.3895303816119129	0.20884103636047102	-0.04260382645004009	0.25511215450116603	0.1709256211929971	0.18256251421674935	0.16353241033334281	0.2127294762977841	0.2576631071008274	0.15604827263959598	0.24560288385432863	0.26066240923631123	0.17746557990968165	0.21163276655349342	0.26948681214224846	0.04387522155282419	0.03922642640746913	-0.2851573698597313	0.005457001605403057	0.15924101642739585	-0.03465933631027492	0.11174449453595603	0.14663302442078757	0.17620529025976844	0.1984203997167228	0.1631530892392622	0.21731451728691198	0.20129316044817247	0.20168005716361842	0.264568796172289	0.17668277844907282	0.2063261308405592	0.2762270994933606
